<svg width="60" height="60" viewBox="0 0 60 60" fill="none" xmlns="http://www.w3.org/2000/svg">
<g clip-path="url(#clip0_10786_337536)">
<g clip-path="url(#clip1_10786_337536)">
<path d="M47.7446 0C54.513 0 60 5.09651 60 11.3834V48.6166C60 54.9036 54.513 60 47.7446 60H12.2554C5.48694 60 0 54.9036 0 48.6166V11.3834C0 5.09651 5.48694 0 12.2554 0H47.7446ZM15.1385 11.3834C15.0233 11.3834 14.9056 11.3834 14.7904 11.499C14.4447 11.6146 14.0965 12.0775 14.0965 12.5425V32.7261C14.0965 37.596 13.9812 42.0057 13.6354 46.2975L13.5178 47.5722H20.8049V46.2975C20.344 41.6564 20.3441 38.1768 20.3441 33.3043V25.5332L42.7821 47.1095L43.9371 48.153C44.2852 48.6154 44.8639 48.7335 45.2096 48.4999C45.673 48.3842 45.9036 47.9215 45.9036 47.3407V29.8247C45.9036 22.8656 46.0188 18.4582 46.367 13.7014L46.4822 12.3112H39.1949L39.3126 13.7014C39.7736 18.5738 39.7736 22.1692 39.7736 28.2007V34.4659L16.063 11.7303C15.8325 11.499 15.4842 11.3834 15.1385 11.3834Z" fill="#006BB6"/>
</g>
</g>
<defs>
<clipPath id="clip0_10786_337536">
<rect width="60" height="60" fill="white"/>
</clipPath>
<clipPath id="clip1_10786_337536">
<rect width="60" height="60" fill="white"/>
</clipPath>
</defs>
</svg>
